<?xml version="1.0" encoding="UTF-8"?>
<svg xmlns="http://www.w3.org/2000/svg" width="800" height="600" viewBox="0 0 800 600">
  <defs>
    <linearGradient id="box-gradient" x1="0%" y1="0%" x2="100%" y2="100%">
      <stop offset="0%" style="stop-color:#f5f9fa;stop-opacity:1" />
      <stop offset="100%" style="stop-color:#e7f1f5;stop-opacity:1" />
    </linearGradient>
    <filter id="shadow" x="-20%" y="-20%" width="140%" height="140%">
      <feDropShadow dx="2" dy="2" stdDeviation="3" flood-color="#000000" flood-opacity="0.1"/>
    </filter>
    <style>
      .box {
        fill: url(#box-gradient);
        stroke: #3aa4ca;
        stroke-width: 2px;
        rx: 8px;
        ry: 8px;
        filter: url(#shadow);
      }
      .arrow {
        fill: none;
        stroke: #2c7a96;
        stroke-width: 2px;
        marker-end: url(#arrowhead);
      }
      .label {
        font-family: 'Arial', sans-serif;
        font-size: 14px;
        fill: #0A0F25;
        text-anchor: middle;
        dominant-baseline: middle;
      }
      .title {
        font-family: 'Arial', sans-serif;
        font-weight: bold;
        font-size: 16px;
        fill: #2c7a96;
        text-anchor: middle;
        dominant-baseline: middle;
      }
      .component {
        font-family: 'Arial', sans-serif;
        font-weight: bold;
        font-size: 18px;
        fill: #2c7a96;
        text-anchor: middle;
        dominant-baseline: middle;
      }
    </style>
    <marker id="arrowhead" markerWidth="10" markerHeight="7" refX="9" refY="3.5" orient="auto">
      <polygon points="0 0, 10 3.5, 0 7" fill="#2c7a96" />
    </marker>
  </defs>
  
  <!-- Background -->
  <rect width="100%" height="100%" fill="#ffffff" />
  
  <!-- Title -->
  <text x="400" y="40" class="component" style="font-size: 24px;">FlowMatrix Architecture</text>
  
  <!-- Data Sources -->
  <rect x="50" y="100" width="150" height="80" class="box" />
  <text x="125" y="130" class="title">Data Sources</text>
  <text x="125" y="155" class="label">Kafka, Kinesis, Files</text>
  
  <!-- FlowMatrix Controller -->
  <rect x="325" y="100" width="150" height="80" class="box" />
  <text x="400" y="130" class="title">FlowMatrix Controller</text>
  <text x="400" y="155" class="label">Manages pipelines</text>
  
  <!-- FlowMatrix Compiler -->
  <rect x="325" y="250" width="150" height="80" class="box" />
  <text x="400" y="280" class="title">FlowMatrix Compiler</text>
  <text x="400" y="305" class="label">SQL to execution plan</text>
  
  <!-- FlowMatrix Workers -->
  <rect x="325" y="400" width="150" height="80" class="box" />
  <text x="400" y="430" class="title">FlowMatrix Workers</text>
  <text x="400" y="455" class="label">Process data streams</text>
  
  <!-- Data Sinks -->
  <rect x="600" y="100" width="150" height="80" class="box" />
  <text x="675" y="130" class="title">Data Sinks</text>
  <text x="675" y="155" class="label">Kafka, Databases, Files</text>
  
  <!-- Web UI -->
  <rect x="600" y="250" width="150" height="80" class="box" />
  <text x="675" y="280" class="title">Web UI</text>
  <text x="675" y="305" class="label">Pipeline management</text>
  
  <!-- API Server -->
  <rect x="600" y="400" width="150" height="80" class="box" />
  <text x="675" y="430" class="title">API Server</text>
  <text x="675" y="455" class="label">REST API</text>
  
  <!-- Arrows -->
  <path d="M 200 140 L 325 140" class="arrow" />
  <path d="M 475 140 L 600 140" class="arrow" />
  <path d="M 400 180 L 400 250" class="arrow" />
  <path d="M 400 330 L 400 400" class="arrow" />
  <path d="M 475 440 L 600 440" class="arrow" />
  <path d="M 675 330 L 675 400" class="arrow" />
  <path d="M 600 290 L 475 290" class="arrow" />
  <path d="M 675 180 L 675 250" class="arrow" />
  
  <!-- State Store -->
  <rect x="325" y="520" width="150" height="80" class="box" />
  <text x="400" y="550" class="title">State Store</text>
  <text x="400" y="575" class="label">Checkpoints & Recovery</text>
  
  <path d="M 400 480 L 400 520" class="arrow" />
</svg>
