<?xml version="1.0" encoding="UTF-8"?>
<svg xmlns="http://www.w3.org/2000/svg" viewBox="0 0 1072.44 288.45">
  <defs>
    <style>
      .flow-blue-dark {fill:#2c7a96;}
      .flow-blue-mid {fill:#3aa4ca;}
      .flow-blue-light {fill:#7cbbd2;}
      .matrix-grid {fill:none; stroke:#3aa4ca; stroke-width:2px;}
      .text-color {fill:#ffffff;}
    </style>
  </defs>

  <!-- Logo Symbol - Flowing Data and Matrix Grid -->
  <g id="symbol">
    <!-- Matrix Grid Background -->
    <g id="matrix-grid">
      <rect class="matrix-grid" x="30" y="60" width="160" height="160" rx="5" />
      <line class="matrix-grid" x1="70" y1="60" x2="70" y2="220" />
      <line class="matrix-grid" x1="110" y1="60" x2="110" y2="220" />
      <line class="matrix-grid" x1="150" y1="60" x2="150" y2="220" />
      <line class="matrix-grid" x1="30" y1="100" x2="190" y2="100" />
      <line class="matrix-grid" x1="30" y1="140" x2="190" y2="140" />
      <line class="matrix-grid" x1="30" y1="180" x2="190" y2="180" />
    </g>

    <!-- Flow Elements -->
    <path class="flow-blue-dark" d="M50,80 Q110,50 170,80 T170,140 Q110,170 50,140 T50,80" />
    <path class="flow-blue-mid" d="M60,90 Q110,65 160,90 T160,130 Q110,155 60,130 T60,90" />
    <path class="flow-blue-light" d="M70,100 Q110,80 150,100 T150,120 Q110,140 70,120 T70,100" />
  </g>

  <!-- FlowMatrix Text -->
  <g id="text">
    <path class="text-color" d="M250,100 h30 v120 h-30 v-120 z M280,100 h100 v25 h-70 v20 h60 v25 h-60 v50 h-30 v-120 z" />
    <path class="text-color" d="M390,100 h30 v45 h70 v-45 h30 v120 h-30 v-50 h-70 v50 h-30 v-120 z" />
    <path class="text-color" d="M540,100 h100 v25 h-70 v20 h60 v25 h-60 v25 h70 v25 h-100 v-120 z" />

    <path class="text-color" d="M660,100 h30 v95 h70 v25 h-100 v-120 z" />
    <path class="text-color" d="M750,100 h30 l40,60 l40,-60 h30 v120 h-30 v-70 l-40,60 l-40,-60 v70 h-30 v-120 z" />
    <path class="text-color" d="M910,100 h100 v25 h-70 v20 h60 v25 h-60 v50 h-30 v-120 z" />
    <path class="text-color" d="M1020,100 h30 v45 h20 l30,-45 h35 l-40,60 l40,60 h-35 l-30,-45 h-20 v45 h-30 v-120 z" />
  </g>
</svg>